<svg width="45" height="45" viewBox="0 0 45 45" fill="none" xmlns="http://www.w3.org/2000/svg">
  <circle cx="22.5" cy="22.5" r="22.5" fill="#242C39" />
  <path d="M21.7323 35.7759C21.4117 35.6519 19.6163 34.9606 17.7393 34.2457C15.8623 33.5309 14.026 32.8278 13.6588 32.686C13.2915 32.5442 12.9943 32.4083 13.0001 32.3847C13.0059 32.3611 13.5714 31.8293 14.2534 31.209C15.2152 30.3346 18.9051 26.967 20.2342 25.7558L20.4324 25.5727L18.841 23.3926C17.9725 22.1873 16.7483 20.5094 16.1246 19.6587L14.9995 18.1167L15.0112 13.5675L15.0287 9.02414L22.5251 13.018L30.0216 17.0119L31.0009 22.211C31.5372 25.0646 31.9802 27.4455 31.9861 27.4928C31.9919 27.5401 30.5346 28.8635 28.7566 30.435C26.9787 32.0066 24.8394 33.8972 24.0116 34.6298C23.178 35.3624 22.461 35.9709 22.4085 35.9827C22.3561 35.9945 22.053 35.9 21.7323 35.7759Z" fill="#0B38CB" />
  <path d="M21.7323 35.7759C21.4117 35.6519 19.6163 34.9606 17.7393 34.2457C15.8623 33.5309 14.026 32.8278 13.6588 32.686C13.2915 32.5442 12.9943 32.4083 13.0001 32.3847C13.0059 32.3611 13.5714 31.8293 14.2534 31.209C15.2152 30.3346 18.9051 26.967 20.2342 25.7558L20.4324 25.5727L18.841 23.3926C17.9725 22.1873 16.7483 20.5094 16.1246 19.6587L14.9995 18.1167L15.0112 13.5675L15.0287 9.02414L22.531 13.018C27.1244 15.4639 30.0332 17.0473 30.0391 17.0946C30.0391 17.1655 30.0216 17.1596 29.9691 17.0828C29.8992 17 29.835 17.0355 29.392 17.4432C29.118 17.6913 28.3078 18.4298 27.5908 19.0797C26.2267 20.3145 25.2649 21.1889 24.3147 22.0751C24.0058 22.3646 23.691 22.6482 23.621 22.7073C23.4928 22.8077 23.4986 22.8136 24.2739 23.2449C25.7312 24.0543 26.046 24.2315 26.3083 24.3792C26.4541 24.462 26.9787 24.7574 27.4742 25.0291C27.9697 25.3068 28.7741 25.7558 29.2521 26.0217C29.736 26.2935 30.2956 26.6066 30.5054 26.7188C30.7153 26.8311 31.1233 27.0674 31.4206 27.2388C31.7121 27.4101 31.9686 27.5223 31.9861 27.4928C31.9977 27.4633 32.0035 27.4692 31.9977 27.5105C31.9919 27.5519 30.5287 28.8694 28.7508 30.4409C26.9729 32.0125 24.8394 33.8972 24.0116 34.6298C23.178 35.3624 22.461 35.9709 22.4085 35.9827C22.3561 35.9945 22.053 35.9 21.7323 35.7759Z" fill="#234EFC" />
  <path d="M21.7323 35.7759C21.4117 35.6519 19.6163 34.9606 17.7393 34.2457C15.8623 33.5309 14.026 32.8278 13.6588 32.686C13.2915 32.5442 12.9943 32.4083 13.0001 32.3847C13.0059 32.3611 13.5714 31.8293 14.2534 31.209C15.2152 30.3346 18.9051 26.967 20.2342 25.7558L20.4324 25.5727L18.841 23.3926C17.9725 22.1873 16.7483 20.5094 16.1246 19.6587L14.9995 18.1167L15.0112 13.5675L15.0287 9.02414L22.531 13.018C26.6581 15.2158 30.0332 17.0355 30.0391 17.065C30.0391 17.0946 29.9983 17.0828 29.9516 17.0414C29.8759 16.9823 29.7651 17.0591 29.2405 17.5495C28.9024 17.8744 28.1737 18.5421 27.6258 19.0442C25.4631 21.0116 24.4546 21.9333 24.0641 22.2996C23.621 22.7073 22.8341 23.428 22.4027 23.8121C22.2628 23.9361 22.1054 24.0838 22.053 24.1311C22.0005 24.1784 21.7557 24.4088 21.505 24.6333C20.4033 25.6318 20.4441 25.5786 20.5373 25.7145C20.584 25.7795 20.992 26.3348 21.4351 26.9493C21.8839 27.5578 22.4727 28.3672 22.7466 28.7394C23.0148 29.1116 23.3471 29.5665 23.4753 29.7438C23.6094 29.921 23.7551 30.1278 23.8017 30.1928C23.8484 30.2637 24.3264 30.9195 24.8568 31.6521C25.7895 32.9341 25.8303 32.9814 25.9353 32.8869C25.9994 32.8337 25.9586 32.881 25.842 32.9932C25.3873 33.4481 22.4435 36.0063 22.3852 36.0004C22.3444 36.0004 22.053 35.8941 21.7323 35.7759Z" fill="#4F71D2" />
  <path d="M21.7329 35.7754C21.4123 35.6514 19.6169 34.9601 17.7399 34.2452C15.8628 33.5304 14.0266 32.8273 13.6594 32.6855C13.2921 32.5437 13.0007 32.4019 13.0181 32.3724C13.0473 32.3133 14.2248 31.2262 15.7288 29.8733C16.2126 29.442 16.7197 28.9752 16.8655 28.8334C17.0112 28.6916 17.8098 27.959 18.6434 27.2028C19.477 26.4466 20.2173 25.7671 20.2931 25.6962L20.4272 25.5663L18.8416 23.3862C17.9672 22.1868 16.7489 20.5089 16.1252 19.6582L15.0001 18.1162V13.5551V9L15.2916 9.15952C15.449 9.24814 15.583 9.33676 15.583 9.36039C15.583 9.38403 15.618 9.40175 15.6588 9.40175C15.7404 9.40175 22.1993 12.8284 22.31 12.9289C22.345 12.9643 22.4149 12.9998 22.4616 13.0116C22.5082 13.0234 24.1987 13.9155 26.2215 14.9908L29.8939 16.9464L29.2585 17.5431C28.9088 17.868 28.1743 18.5416 27.6263 19.0437C25.0556 21.3833 24.4435 21.9446 24.0646 22.2991C23.6216 22.7067 22.8347 23.4275 22.4033 23.8116C22.2634 23.9356 22.106 24.0833 22.0535 24.1306C22.0011 24.1779 21.7562 24.4083 21.5056 24.6328C20.4038 25.6312 20.4446 25.5781 20.5379 25.714C20.5846 25.779 20.9926 26.3343 21.4356 26.9488C21.8845 27.5573 22.4732 28.3667 22.7472 28.7389C23.0154 29.1111 23.3476 29.566 23.4759 29.7433C23.6099 29.9205 23.7557 30.1273 23.8023 30.1923C23.8489 30.2632 24.327 30.919 24.8574 31.6516C25.7901 32.9336 25.8309 32.9809 25.9358 32.8864C26 32.8332 25.9591 32.8805 25.8426 32.9927C25.3879 33.4476 22.4441 36.0058 22.3858 35.9999C22.345 35.9999 22.0535 35.8936 21.7329 35.7754Z" fill="#526DFD" />
  <path d="M20.3741 25.6253C20.4441 25.5367 20.4324 25.5131 19.4181 24.1188C16.6434 20.3081 15.8273 19.1914 15.699 19.0142C15.1569 18.2521 15.0462 18.0925 15.0928 18.1162C15.5591 18.3938 17.3312 19.3805 18.3222 19.9181C18.5321 20.0363 18.7827 20.1722 18.876 20.2313C18.9751 20.2903 19.4589 20.5621 19.9544 20.8398C20.4499 21.1116 20.9745 21.407 21.1203 21.4838C21.266 21.5665 21.8489 21.8914 22.4202 22.2105L23.4578 22.7954L23.1489 23.1026C22.9798 23.268 22.6067 23.6107 22.3153 23.8647C22.0296 24.1188 21.6041 24.5028 21.3826 24.7155C21.1553 24.9282 20.858 25.2059 20.7181 25.324C20.5723 25.4481 20.4791 25.5781 20.4965 25.6194C20.514 25.6667 20.4849 25.7022 20.4149 25.7022C20.3392 25.7022 20.3275 25.6844 20.3741 25.6253Z" fill="#7E96F8" />
</svg>
